<?xml version="1.0" standalone="no"?>
<!DOCTYPE svg PUBLIC "-//W3C//DTD SVG 20010904//EN"
 "http://www.w3.org/TR/2001/REC-SVG-20010904/DTD/svg10.dtd">
<svg version="1.0" xmlns="http://www.w3.org/2000/svg"
 width="500.000000pt" height="500.000000pt" viewBox="0 0 500.000000 500.000000"
 preserveAspectRatio="xMidYMid meet">

<g transform="translate(0.000000,500.000000) scale(0.100000,-0.100000)"
fill="#000000" stroke="none">
<path d="M2385 3756 c-260 -43 -497 -155 -688 -324 -223 -197 -377 -459 -442
-752 -25 -115 -31 -384 -11 -503 56 -329 219 -622 462 -828 384 -327 895 -422
1366 -254 367 131 676 429 817 787 70 178 109 415 96 588 -46 634 -481 1140
-1095 1275 -102 23 -397 29 -505 11z m504 -502 c415 -138 603 -600 403 -989
-26 -50 -61 -95 -126 -160 -97 -96 -153 -131 -268 -171 -91 -31 -129 -31 -165
0 l-28 24 0 150 c0 174 1 177 94 211 127 46 196 146 195 281 0 114 -52 198
-156 256 -46 25 -63 29 -128 28 -129 -1 -221 -59 -274 -173 -20 -45 -21 -61
-26 -576 -5 -506 -6 -532 -25 -563 -32 -53 -90 -75 -190 -71 -93 4 -121 18
-163 80 l-23 33 3 551 3 550 28 80 c89 253 301 440 550 485 81 14 209 3 296
-26z"/>
</g>
</svg>
