<?xml version="1.0" standalone="no"?>
<!DOCTYPE svg PUBLIC "-//W3C//DTD SVG 20010904//EN"
 "http://www.w3.org/TR/2001/REC-SVG-20010904/DTD/svg10.dtd">
<svg version="1.0" xmlns="http://www.w3.org/2000/svg"
 width="500.000000pt" height="500.000000pt" viewBox="0 0 500.000000 500.000000"
 preserveAspectRatio="xMidYMid meet">

<g transform="translate(0.000000,500.000000) scale(0.100000,-0.100000)"
fill="#000000" stroke="none">
<path d="M2318 4150 c-232 -27 -493 -118 -693 -243 -392 -243 -658 -628 -750
-1081 -137 -677 167 -1373 758 -1735 378 -231 809 -298 1266 -195 270 60 575
236 782 450 229 238 368 500 440 831 27 125 37 395 20 526 -50 378 -209 704
-472 966 -249 249 -545 402 -904 467 -99 18 -344 26 -447 14z m522 -619 c270
-91 463 -291 546 -566 36 -120 38 -306 5 -430 -78 -293 -307 -526 -588 -599
-80 -21 -109 -20 -144 5 -42 30 -51 74 -47 241 4 173 11 190 99 223 139 52
213 129 245 257 50 194 -81 391 -283 427 -78 15 -132 6 -211 -32 -76 -37 -143
-108 -175 -187 -22 -54 -22 -63 -27 -685 -6 -693 -3 -667 -67 -713 -57 -40
-190 -55 -278 -31 -53 15 -110 73 -125 128 -8 31 -10 215 -8 664 4 605 5 624
26 701 88 315 332 552 642 621 43 10 104 14 180 11 97 -3 130 -8 210 -35z"/>
</g>
</svg>
